<svg class="navigation__button-img" xmlns="http://www.w3.org/2000/svg" width="30" height="30" viewBox="0 0 30 30"><g fill="#ccc"><path d="M22.324 11.188H7.676a1.178 1.178 0 0 1-1.172-1.172c0-.649.527-1.172 1.172-1.172h14.648c.645 0 1.172.523 1.172 1.172 0 .64-.527 1.171-1.172 1.171zm0 0M22.324 21.156H7.676a1.173 1.173 0 0 1-1.172-1.172c0-.64.527-1.172 1.172-1.172h14.648c.645 0 1.172.532 1.172 1.172 0 .649-.527 1.172-1.172 1.172zm0 0M22.324 16.172H7.676A1.175 1.175 0 0 1 6.504 15c0-.645.527-1.172 1.172-1.172h14.648c.645 0 1.172.527 1.172 1.172 0 .645-.527 1.172-1.172 1.172zm0 0"/></g></svg>
